<?xml version="1.0" standalone="no"?>
<!DOCTYPE svg PUBLIC "-//W3C//DTD SVG 20010904//EN"
 "http://www.w3.org/TR/2001/REC-SVG-20010904/DTD/svg10.dtd">
<svg version="1.0" xmlns="http://www.w3.org/2000/svg"
 width="60.000000pt" height="60.000000pt" viewBox="0 0 60.000000 60.000000"
 preserveAspectRatio="xMidYMid meet">
<metadata>
Created by potrace 1.16, written by Peter Selinger 2001-2019
</metadata>
<g transform="translate(0.000000,60.000000) scale(0.100000,-0.100000)"
fill="#000000" stroke="none">
<path d="M199 532 c-92 -48 -137 -150 -109 -251 12 -45 81 -128 131 -158 14
-9 36 -35 48 -59 11 -24 25 -44 31 -44 6 0 20 20 31 44 12 24 34 50 48 59 50
30 119 113 131 158 28 101 -17 203 -109 251 -71 37 -131 37 -202 0z"/>
</g>
</svg>
